<svg width="48" height="48" viewBox="0 0 48 48" fill="none" xmlns="http://www.w3.org/2000/svg">
<path fill-rule="evenodd" clip-rule="evenodd" d="M43.0921 10.2221C43.6545 10.7847 43.9704 11.5476 43.9704 12.3431C43.9704 13.1386 43.6545 13.9015 43.0921 14.4641L20.6061 36.9501C20.3089 37.2474 19.9561 37.4831 19.5678 37.644C19.1795 37.8049 18.7633 37.8876 18.3431 37.8876C17.9228 37.8876 17.5066 37.8049 17.1183 37.644C16.73 37.4831 16.3772 37.2474 16.0801 36.9501L4.90805 25.7801C4.62152 25.5034 4.39298 25.1724 4.23575 24.8063C4.07852 24.4403 3.99576 24.0467 3.9923 23.6483C3.98884 23.25 4.06474 22.855 4.21559 22.4863C4.36643 22.1176 4.58919 21.7826 4.87087 21.5009C5.15255 21.2193 5.4875 20.9965 5.85619 20.8457C6.22488 20.6948 6.61992 20.6189 7.01826 20.6224C7.41659 20.6258 7.81025 20.7086 8.17627 20.8658C8.54228 21.0231 8.87331 21.2516 9.15005 21.5381L18.3421 30.7301L38.8481 10.2221C39.1267 9.94335 39.4575 9.7222 39.8216 9.57132C40.1857 9.42043 40.5759 9.34277 40.9701 9.34277C41.3642 9.34277 41.7544 9.42043 42.1185 9.57132C42.4827 9.7222 42.8135 9.94335 43.0921 10.2221Z" fill="#B2F142"/>
</svg>
