<svg width="48" height="48" viewBox="0 0 48 48" fill="none" xmlns="http://www.w3.org/2000/svg">
<path d="M4 44V8C4 6.9 4.392 5.95867 5.176 5.176C5.96 4.39333 6.90133 4.00133 8 4H40C41.1 4 42.042 4.392 42.826 5.176C43.61 5.96 44.0013 6.90133 44 8V32C44 33.1 43.6087 34.042 42.826 34.826C42.0433 35.61 41.1013 36.0013 40 36H12L4 44ZM24 30C24.5667 30 25.042 29.808 25.426 29.424C25.81 29.04 26.0013 28.5653 26 28C25.9987 27.4347 25.8067 26.96 25.424 26.576C25.0413 26.192 24.5667 26 24 26C23.4333 26 22.9587 26.192 22.576 26.576C22.1933 26.96 22.0013 27.4347 22 28C21.9987 28.5653 22.1907 29.0407 22.576 29.426C22.9613 29.8113 23.436 30.0027 24 30ZM22 22H26V10H22V22Z" fill="#FF4C47"/>
</svg>
